<?xml version="1.0" standalone="no"?>
<!DOCTYPE svg PUBLIC "-//W3C//DTD SVG 20010904//EN"
 "http://www.w3.org/TR/2001/REC-SVG-20010904/DTD/svg10.dtd">
<svg version="1.0" xmlns="http://www.w3.org/2000/svg"
 width="16.000000pt" height="16.000000pt" viewBox="0 0 16.000000 16.000000"
 preserveAspectRatio="xMidYMid meet">
<metadata>
Created by potrace 1.11, written by Peter Selinger 2001-2013
</metadata>
<g transform="translate(0.000000,16.000000) scale(0.006154,-0.006154)"
fill="#000000" stroke="none">
<path d="M1077 2451 c-288 -63 -490 -281 -500 -541 l-2 -65 215 0 214 0 8 44
c12 71 46 130 97 166 61 44 119 60 216 58 189 -4 278 -86 279 -258 1 -74 -2
-88 -36 -155 -42 -86 -151 -213 -273 -319 -148 -129 -178 -193 -191 -412 l-7
-119 195 0 195 0 11 94 c7 59 19 110 33 137 13 27 82 103 181 199 88 85 180
182 204 216 108 151 146 290 125 455 -33 254 -167 407 -426 485 -80 24 -110
27 -270 30 -149 3 -195 1 -268 -15z"/>
<path d="M1198 606 c-127 -45 -186 -170 -147 -310 23 -83 134 -156 239 -156
120 0 228 80 250 183 19 96 -8 178 -80 240 -64 54 -178 73 -262 43z"/>
</g>
</svg>
